PathFileType	4	(X/Y/Z)	output.trc
DataRate	CameraRate	NumFrames	NumMarkers	Units	OrigDataRate	OrigDataStartFrame	OrigNumFrames
128	128	16	47	mm	128	2184	2911
Frame#	Time	C7			LSHO			RSHO			CLAV			T10			LUPA			RELB			LELB			LFRA			RFRA			RWRB			RWRA			RFIN			LWRB			LWRA			LFIN			RASI			LASI			RPSI			LPSI			RANK			LANK			LMMA			LHEE			LTOE			RMMA			RHEE			RTOE			RMT5			LMT5			RKNE			LKNE			LMFC			RMFC			RFM2			LFM2			RTP2			RTP3			RTA3			LTP2			LTP3			LTA3			LBHD			RBHD			RFHD			RGTR			LGTR			
		X1	Y1	Z1	X2	Y2	Z2	X3	Y3	Z3	X4	Y4	Z4	X5	Y5	Z5	X6	Y6	Z6	X7	Y7	Z7	X8	Y8	Z8	X9	Y9	Z9	X10	Y10	Z10	X11	Y11	Z11	X12	Y12	Z12	X13	Y13	Z13	X14	Y14	Z14	X15	Y15	Z15	X16	Y16	Z16	X17	Y17	Z17	X18	Y18	Z18	X19	Y19	Z19	X20	Y20	Z20	X21	Y21	Z21	X22	Y22	Z22	X23	Y23	Z23	X24	Y24	Z24	X25	Y25	Z25	X26	Y26	Z26	X27	Y27	Z27	X28	Y28	Z28	X29	Y29	Z29	X30	Y30	Z30	X31	Y31	Z31	X32	Y32	Z32	X33	Y33	Z33	X34	Y34	Z34	X35	Y35	Z35	X36	Y36	Z36	X37	Y37	Z37	X38	Y38	Z38	X39	Y39	Z39	X40	Y40	Z40	X41	Y41	Z41	X42	Y42	Z42	X43	Y43	Z43	X44	Y44	Z44	X45	Y45	Z45	X46	Y46	Z46	X47	Y47	Z47	
2184	17.05469	1394.46525	1375.09084	1384.27317	1241.37743	1302.51952	1258.72386	1098.72254	1091.28856	919.88743	945.33383	793.98821	796.01216	700.07810	784.95357	788.42956	689.20632	1060.13960	1052.38768	1198.94886	1198.40341	70.95793	70.57153	75.61453	42.84184	31.40007	71.85537	44.22344	35.10051	21.95431	27.15181	510.52418	523.18394	537.52878	527.48007	680.72843	680.77853	317.96690	377.80024	343.70302	310.78501	345.61423	338.49703	1284.60976	1684.60976	1314.60976	1284.60976	1684.60976	1454.60976	1484.60976	1684.60976	1454.60976	793.98821	784.95357	
2185	17.06250	1392.22524	1373.04964	1382.26809	1239.15993	1302.24207	1256.87609	1098.85102	1090.17822	918.81498	945.15866	794.04903	795.92737	700.20216	783.85868	787.03130	688.00913	1059.76666	1052.56640	1199.11706	1198.52089	71.01077	70.63037	75.57571	42.95051	31.36203	71.81655	44.27651	35.14480	21.94867	27.18642	510.46165	523.30519	537.42986	527.49674	680.78549	680.74038	318.14941	377.74409	343.89627	310.71232	345.54697	338.41602	1282.51432	1682.51432	1312.51432	1282.51432	1682.51432	1452.51432	1482.51432	1682.51432	1452.51432	794.04903	783.85868	
2186	17.07031	1390.01096	1371.07033	1380.19976	1236.83590	1301.93113	1254.50419	1099.01289	1089.15175	917.66870	945.03878	794.21564	795.88084	700.33893	782.77464	785.83850	686.99170	1059.50562	1052.74378	1199.25796	1198.63703	71.06001	70.75308	75.55042	43.05421	31.34289	71.79126	44.27947	35.10996	21.97215	27.23606	510.45656	523.30480	537.39941	527.51880	680.89643	680.67245	318.16018	377.54668	343.86425	310.53245	345.36921	338.27100	1280.42701	1680.42701	1310.42701	1280.42701	1680.42701	1450.42701	1480.42701	1680.42701	1450.42701	794.21564	782.77464	
2187	17.07812	1387.59434	1368.94911	1378.22859	1234.55904	1301.63052	1252.28415	1099.14078	1088.03158	916.56667	944.90569	794.33306	795.84104	700.50981	781.59894	784.70266	685.76010	1059.16346	1052.94414	1199.40154	1198.77616	71.11021	70.82897	75.51133	43.17001	31.31898	71.75217	44.30915	35.09639	21.96179	27.28730	510.48190	523.29684	537.42311	527.50536	681.01517	680.70186	318.19557	377.54947	343.70738	310.67703	345.32279	338.16658	1278.25734	1678.25734	1308.25734	1278.25734	1678.25734	1448.25734	1478.25734	1678.25734	1448.25734	794.33306	781.59894	
2188	17.08594	1385.29624	1366.84217	1376.21095	1232.27494	1301.33654	1250.22474	1099.28878	1086.83415	915.24412	944.77770	794.45482	795.81522	700.56537	780.48523	783.40470	684.46880	1058.91837	1053.11315	1199.55480	1198.88392	71.14819	70.92193	75.51637	43.25441	31.25890	71.75721	44.32370	35.07469	21.92528	27.26723	510.61597	523.19151	537.36709	527.49510	681.16829	680.86885	318.38953	377.63562	343.18584	310.57397	345.32577	338.29451	1276.11645	1676.11645	1306.11645	1276.11645	1676.11645	1446.11645	1476.11645	1676.11645	1446.11645	794.45482	780.48523	
2189	17.09375	1382.92418	1364.67446	1374.09323	1229.97685	1301.01652	1247.69316	1099.45205	1085.57871	913.92907	944.71984	794.57893	795.71209	700.65053	779.21393	782.01679	683.08115	1058.63840	1053.36760	1199.73240	1199.07713	71.17602	70.89834	75.53331	43.35180	31.22506	71.77415	44.38604	35.20823	21.95789	27.13865	510.59032	523.18520	537.38540	527.60449	681.42921	681.26754	317.76399	377.67502	343.21612	310.51482	345.21970	338.34072	1273.89729	1673.89729	1303.89729	1273.89729	1673.89729	1443.89729	1473.89729	1673.89729	1443.89729	794.57893	779.21393	
2190	17.10156	1380.54710	1362.36864	1371.98652	1227.82883	1300.73859	1245.36761	1099.62116	1084.32895	912.58338	944.69825	794.72782	795.59309	700.58324	777.89403	780.65010	681.64469	1058.47165	1053.63736	1199.89188	1199.28565	71.23157	70.99697	75.54082	43.44753	31.14801	71.78166	44.40194	35.06976	21.95781	27.16047	510.61566	523.22459	537.39941	527.58010	681.60075	681.09825	317.74994	377.65968	343.37958	310.43589	345.15733	338.22986	1271.63409	1671.63409	1301.63409	1271.63409	1671.63409	1441.63409	1471.63409	1671.63409	1441.63409	794.72782	777.89403	
2191	17.10938	1378.12830	1360.11760	1369.82056	1225.30035	1300.38361	1243.23181	1099.77229	1082.92253	911.16761	944.68241	794.82955	795.19635	700.52063	776.66859	779.05638	680.12124	1058.14912	1053.81255	1200.06621	1199.39960	71.27135	71.09304	75.53366	43.55103	31.16292	71.77450	44.43800	35.06248	21.95454	27.14954	510.58793	523.28318	537.35853	527.69760	681.79477	681.21615	317.77388	377.72672	343.43574	310.34351	345.05799	338.08453	1269.35549	1669.35549	1299.35549	1269.35549	1669.35549	1439.35549	1469.35549	1669.35549	1439.35549	794.82955	776.66859	
2192	17.11719	1375.75624	1357.82011	1367.70614	1222.79749	1300.02960	1241.10662	1099.88121	1081.47474	909.61933	944.74685	794.88320	795.04104	700.39109	775.04949	777.38667	678.60923	1057.94368	1053.96447	1200.21015	1199.49028	71.26056	71.11656	75.49821	43.62884	31.11768	71.73905	44.45525	35.10760	21.95455	27.17562	510.58559	523.35014	537.36269	527.73679	682.00329	681.22518	317.81015	377.54817	343.31129	310.30230	345.06579	337.94372	1267.09416	1667.09416	1297.09416	1267.09416	1667.09416	1437.09416	1467.09416	1667.09416	1437.09416	794.88320	775.04949	
2193	17.12500	1373.34308	1355.47198	1365.50662	1220.36404	1299.85011	1238.13090	1100.01896	1079.91465	907.90078	944.72405	794.94207	794.89059	700.19365	773.38647	775.71975	676.83461	1057.73301	1054.13105	1200.29333	1199.59563	71.23444	71.14743	75.52907	43.73363	31.07714	71.76991	44.42784	35.20437	21.92518	27.17588	510.60511	523.14184	537.27916	527.74020	682.15667	681.26910	317.94875	377.51950	343.14341	310.33640	344.97271	337.95570	1264.77390	1664.77390	1294.77390	1264.77390	1664.77390	1434.77390	1464.77390	1664.77390	1434.77390	794.94207	773.38647	
2194	17.13281	1370.86668	1353.10309	1363.29196	1217.94700	1299.50204	1235.96912	1100.09662	1078.26082	906.18144	944.65436	795.00608	794.74838	699.99055	771.93917	773.84883	675.17399	1057.41148	1054.27805	1200.44528	1199.68139	71.25322	71.20442	75.50622	43.88746	31.00212	71.74706	44.42661	35.22446	21.90989	27.17947	510.66154	523.18516	537.33885	527.76786	682.25261	681.40017	317.77042	377.55518	343.52077	310.32540	344.95137	337.83331	1262.42058	1662.42058	1292.42058	1262.42058	1662.42058	1432.42058	1462.42058	1662.42058	1432.42058	795.00608	771.93917	
2195	17.14062	1368.52186	1350.73850	1361.04258	1215.59132	1299.21199	1232.74893	1100.11138	1076.60196	904.38485	944.54133	794.99524	794.52687	699.76297	770.20385	772.05559	673.20529	1057.13019	1054.47744	1200.58570	1199.81953	71.22368	71.24336	75.56168	43.91423	31.04502	71.80252	44.41481	35.02178	21.86121	27.19203	510.74319	523.14829	537.35878	527.81606	682.34749	681.41012	317.70120	377.61389	343.35505	310.25994	344.90069	337.83570	1260.10098	1660.10098	1290.10098	1260.10098	1660.10098	1430.10098	1460.10098	1660.10098	1430.10098	794.99524	770.20385	
2196	17.14844	1366.11323	1348.40187	1358.88133	1213.19057	1298.83949	1230.29022	1100.03059	1074.87327	902.57560	944.37876	794.98414	794.21360	699.49787	768.43200	770.08522	671.47815	1056.87549	1054.60792	1200.68841	1199.88877	71.18902	71.26022	75.58056	43.97970	31.01604	71.82140	44.42374	35.06293	21.83851	27.18651	510.75570	523.08060	537.21575	527.78535	682.39733	681.45178	317.74422	377.71021	343.39933	310.09073	344.80805	337.87025	1257.79881	1657.79881	1287.79881	1257.79881	1657.79881	1427.79881	1457.79881	1657.79881	1427.79881	794.98414	768.43200	
2197	17.15625	1363.75980	1346.05983	1356.73268	1210.76882	1298.56576	1228.12998	1099.96913	1073.18371	900.74591	944.22641	794.93108	793.60847	699.17680	766.67804	768.22236	669.66010	1057.00429	1054.75276	1200.81720	1199.97237	71.21025	71.36356	75.60201	44.04589	30.99187	71.84285	44.40855	35.20812	21.82426	27.15869	510.75137	523.12698	537.27338	527.96036	682.38360	682.03660	317.78179	377.57245	343.69131	309.96973	344.67941	337.83302	1255.51743	1655.51743	1285.51743	1255.51743	1655.51743	1425.51743	1455.51743	1655.51743	1425.51743	794.93108	766.67804	
2198	17.16406	1361.42229	1343.70848	1354.54184	1208.50191	1298.23750	1225.75884	1099.78528	1071.48996	898.93496	944.04317	794.72339	793.20127	698.77818	764.93042	766.21363	667.81735	1057.09567	1054.92502	1200.95507	1200.08339	71.21633	71.35688	75.61835	44.11652	30.97697	71.85919	44.43313	35.12067	21.79763	27.15512	510.68888	523.17216	537.24616	527.95481	682.44342	681.59317	317.80349	377.60992	343.61454	309.92059	344.63426	337.73922	1253.22420	1653.22420	1283.22420	1253.22420	1653.22420	1423.22420	1453.22420	1653.22420	1423.22420	794.72339	764.93042	
2199	17.17188	1359.12587	1341.48692	1352.32331	1206.17739	1297.93268	1223.07920	1099.55899	1069.78928	897.11785	943.82129	794.50953	792.78731	698.27801	763.28773	764.38153	665.84400	1057.20188	1055.14348	1201.10776	1200.24062	71.22762	71.40463	75.62600	44.18590	31.00913	71.86684	44.41154	35.21727	21.79289	27.19593	510.75352	523.10115	537.15059	527.89601	682.44301	681.51575	317.91099	377.49973	343.63354	309.82363	344.54445	337.68154	1250.97870	1650.97870	1280.97870	1250.97870	1650.97870	1420.97870	1450.97870	1650.97870	1420.97870	794.50953	763.28773	
